<svg xmlns="http://www.w3.org/2000/svg" viewBox="0 0 287.86 133.2"><defs><style>.cls-1,.cls-3{fill:none;stroke-miterlimit:10;}.cls-1{stroke:#b6b7aa;stroke-width:2px;}.cls-2{fill:#db7543;}.cls-3{stroke:#db7543;stroke-width:4px;}.cls-4{fill:#b6b7aa;}</style></defs><title>Asset 5</title><g id="Layer_2" data-name="Layer 2"><g id="Layer_2-2" data-name="Layer 2"><rect class="cls-1" x="122.44" y="50.72" width="43.47" height="43.84" rx="13.99" ry="13.99" transform="translate(-9.13 123.22) rotate(-45)"/></g><g id="Layer_5" data-name="Layer 5"><path class="cls-2" d="M103.44,5.13l22.19,22.19c2.73,2.73,7-1.51,4.24-4.24L107.68.88c-2.73-2.73-7,1.51-4.24,4.24Z"/><path class="cls-2" d="M180.63,1.88,158.44,24.07c-2.73,2.73,1.51,7,4.24,4.24L184.87,6.13c2.73-2.73-1.51-7-4.24-4.24Z"/><path class="cls-2" d="M102.44,109.13l22.19,22.19c2.73,2.73,7-1.51,4.24-4.24l-22.19-22.19c-2.73-2.73-7,1.51-4.24,4.24Z"/><path class="cls-2" d="M180.63,105.88l-22.19,22.19c-2.73,2.73,1.51,7,4.24,4.24l22.19-22.19c2.73-2.73-1.51-7-4.24-4.24Z"/><path class="cls-2" d="M197.45,75.35a1.5,1.5,0,0,0,0-3,1.5,1.5,0,0,0,0,3Z"/><path class="cls-2" d="M197.45,74.86l89,.6a1.5,1.5,0,0,0,0-3l-89-.6a1.5,1.5,0,0,0,0,3Z"/><path class="cls-2" d="M199.73,74.55,220.07,54.2c2.05-2.05-1.13-5.23-3.18-3.18L196.55,71.37c-2.05,2.05,1.13,5.23,3.18,3.18Z"/><path class="cls-2" d="M219.1,54.57h10.53c2.9,0,2.9-4.5,0-4.5H219.1c-2.9,0-2.9,4.5,0,4.5Z"/><path class="cls-2" d="M238.73,74.55,253.47,59.8c2.05-2.05-1.13-5.23-3.18-3.18L235.55,71.37c-2.05,2.05,1.13,5.23,3.18,3.18Z"/><path class="cls-2" d="M275.73,74.55l9.67-9.67c2.05-2.05-1.13-5.23-3.18-3.18l-9.67,9.67c-2.05,2.05,1.13,5.23,3.18,3.18Z"/><path class="cls-2" d="M252.32,60.25H260c2.9,0,2.9-4.5,0-4.5h-7.63c-2.9,0-2.9,4.5,0,4.5Z"/><path class="cls-2" d="M196.55,75.91l20.35,20.35c2.05,2.05,5.23-1.13,3.18-3.18L199.73,72.73c-2.05-2.05-5.23,1.13-3.18,3.18Z"/><path class="cls-2" d="M219.1,97.21h10.53c2.9,0,2.9-4.5,0-4.5H219.1c-2.9,0-2.9,4.5,0,4.5Z"/><path class="cls-2" d="M235.55,75.91l14.74,14.74c2.05,2.05,5.23-1.13,3.18-3.18L238.73,72.73c-2.05-2.05-5.23,1.13-3.18,3.18Z"/><path class="cls-2" d="M272.55,75.91l9.67,9.67c2.05,2.05,5.23-1.13,3.18-3.18l-9.67-9.67c-2.05-2.05-5.23,1.13-3.18,3.18Z"/><path class="cls-2" d="M252.32,91.52H260c2.9,0,2.9-4.5,0-4.5h-7.63c-2.9,0-2.9,4.5,0,4.5Z"/><path class="cls-2" d="M90.41,71.86l-89,.6a1.5,1.5,0,0,0,0,3l89-.6a1.5,1.5,0,0,0,0-3Z"/><path class="cls-2" d="M91.31,71.37,71,51c-2.05-2.05-5.23,1.13-3.18,3.18L88.13,74.55c2.05,2.05,5.23-1.13,3.18-3.18Z"/><path class="cls-2" d="M68.76,50.07H58.23c-2.9,0-2.9,4.5,0,4.5H68.76c2.9,0,2.9-4.5,0-4.5Z"/><path class="cls-2" d="M52.31,71.37,37.57,56.62c-2.05-2.05-5.23,1.13-3.18,3.18L49.13,74.55c2.05,2.05,5.23-1.13,3.18-3.18Z"/><path class="cls-2" d="M15.31,71.37,5.64,61.7C3.59,59.65.41,62.83,2.46,64.88l9.67,9.67c2.05,2.05,5.23-1.13,3.18-3.18Z"/><path class="cls-2" d="M35.53,55.75H27.9c-2.9,0-2.9,4.5,0,4.5h7.63c2.9,0,2.9-4.5,0-4.5Z"/><path class="cls-2" d="M88.13,72.73,67.78,93.08c-2.05,2.05,1.13,5.23,3.18,3.18L91.31,75.91c2.05-2.05-1.13-5.23-3.18-3.18Z"/><path class="cls-2" d="M68.76,92.71H58.23c-2.9,0-2.9,4.5,0,4.5H68.76c2.9,0,2.9-4.5,0-4.5Z"/><path class="cls-2" d="M49.13,72.73,34.38,87.47c-2.05,2.05,1.13,5.23,3.18,3.18L52.31,75.91c2.05-2.05-1.13-5.23-3.18-3.18Z"/><path class="cls-2" d="M12.13,72.73,2.46,82.4c-2.05,2.05,1.13,5.23,3.18,3.18l9.67-9.67c2.05-2.05-1.13-5.23-3.18-3.18Z"/><path class="cls-2" d="M35.53,87H27.9c-2.9,0-2.9,4.5,0,4.5h7.63c2.9,0,2.9-4.5,0-4.5Z"/><rect class="cls-3" x="103.69" y="31.03" width="82.73" height="83.44" rx="13.99" ry="13.99" transform="translate(-8.96 123.88) rotate(-45)"/><path class="cls-4" d="M144.26,80.88c11.58,0,11.6-18,0-18s-11.6,18,0,18Z"/></g></g></svg>